<svg id="Layer_1" data-name="Layer 1" xmlns="http://www.w3.org/2000/svg" viewBox="0 0 32 32"><defs><style>.cls-1{fill:#fff;}.cls-2{fill:#ea1e26;}.cls-3{fill:#2d3588;}</style></defs><circle class="cls-1" cx="16" cy="16" r="16"/><path class="cls-2" d="M11.83,19.2a3.69,3.69,0,0,1-.42-7.36,4.65,4.65,0,0,0-.75-.07,4.23,4.23,0,1,0,3.51,6.58,3.63,3.63,0,0,1-2.34.85"/><path class="cls-3" d="M25.38,16.51l-.19.12a1.59,1.59,0,0,1-.4.18,1.54,1.54,0,0,1-.42.07,1.15,1.15,0,0,1-.41-.05,1.37,1.37,0,0,1-.38-.15,1.85,1.85,0,0,1-.34-.23,2.13,2.13,0,0,1-.31-.29L22.79,16l-.07-.09,0,0,0,0-.17-.27-.25.24a2.51,2.51,0,0,1-.57.43,1.68,1.68,0,0,1-.64.19,2.27,2.27,0,0,1-.68-.06,4.45,4.45,0,0,1-.7-.24L19.31,16,19,15.82l-.71-.36-.7-.38-.72-.36-.37-.18-.18-.08-.19-.09a7.41,7.41,0,0,0-.79-.28L15.09,14l-.2,0-.21,0-.2,0a5.9,5.9,0,0,0-.83-.06,7.56,7.56,0,0,0-.83,0,7.25,7.25,0,0,0-.81.16l-.39.11-.39.14-.36.17-.36.21a6,6,0,0,1,.77-.22q.39-.08.78-.12c.26,0,.52,0,.78,0s.52,0,.78,0a6.54,6.54,0,0,1,.75.13,6.14,6.14,0,0,1,.73.22l.18.07.18.07.34.16.17.08.18.09.35.19.7.38.71.38.72.37a7.56,7.56,0,0,0,.76.33,4.32,4.32,0,0,0,.82.24,2.76,2.76,0,0,0,.91,0,2,2,0,0,0,.66-.21h0a1.61,1.61,0,0,0,.64-.78c0,.37.44.68.5.73h0a2.58,2.58,0,0,0,.44.22,2,2,0,0,0,.48.12,1.67,1.67,0,0,0,.5,0,1.48,1.48,0,0,0,.46-.16l.21-.12c.06-.05.12-.09.18-.15l.16-.16.08-.09.07-.09-.18.14"/><path class="cls-3" d="M25.38,17.86l-.19.12a1.59,1.59,0,0,1-.4.18,1.54,1.54,0,0,1-.42.07,1.15,1.15,0,0,1-.41-.05,1.77,1.77,0,0,1-.38-.15,1.85,1.85,0,0,1-.34-.23,2.13,2.13,0,0,1-.31-.29l-.14-.15-.07-.09,0,0s0,0,0,0l-.17-.27-.25.24a2.51,2.51,0,0,1-.57.43,1.68,1.68,0,0,1-.64.19,2.27,2.27,0,0,1-.68-.06,4.45,4.45,0,0,1-.7-.24l-.35-.15L19,17.17l-.71-.36-.7-.38-.72-.36-.37-.18-.18-.08-.19-.09a7.41,7.41,0,0,0-.79-.28l-.21,0-.2-.05-.21,0-.2,0a5.9,5.9,0,0,0-.83-.06,7.56,7.56,0,0,0-.83,0,7.25,7.25,0,0,0-.81.16l-.39.11-.39.14-.36.17-.36.2c.26-.09.52-.15.77-.21l.78-.12c.26,0,.52,0,.78,0s.52,0,.78,0a6.54,6.54,0,0,1,.75.13,6.14,6.14,0,0,1,.73.22l.18.07.18.07.34.16.17.08.18.09.35.19.7.38.71.38.72.37a7.56,7.56,0,0,0,.76.33,4.32,4.32,0,0,0,.82.24,2.76,2.76,0,0,0,.91,0,2,2,0,0,0,.66-.21h0a1.61,1.61,0,0,0,.64-.78c0,.37.44.68.5.73h0a3.61,3.61,0,0,0,.44.22,2,2,0,0,0,.48.12,1.67,1.67,0,0,0,.5,0,1.48,1.48,0,0,0,.46-.16,2.25,2.25,0,0,0,.21-.12l.18-.15a1.21,1.21,0,0,0,.16-.16l.08-.09.07-.09-.18.14"/><path class="cls-3" d="M25.38,19.21l-.19.12a1.59,1.59,0,0,1-.4.18,1.54,1.54,0,0,1-.42.07,1.15,1.15,0,0,1-.41,0,1.37,1.37,0,0,1-.38-.15,1.85,1.85,0,0,1-.34-.23,2.13,2.13,0,0,1-.31-.29l-.14-.15-.07-.09,0,0,0,0-.17-.27-.25.24a2.51,2.51,0,0,1-.57.43,1.68,1.68,0,0,1-.64.19,2.27,2.27,0,0,1-.68-.06,4.45,4.45,0,0,1-.7-.24l-.35-.15L19,18.52l-.71-.36-.7-.38-.72-.36-.37-.18-.18-.08-.19-.09a7.41,7.41,0,0,0-.79-.28l-.21-.05-.2,0-.21,0a1.2,1.2,0,0,0-.2,0,4.73,4.73,0,0,0-.83-.07,7.56,7.56,0,0,0-.83,0,7.25,7.25,0,0,0-.81.16l-.39.11-.39.14-.36.17-.36.2c.26-.09.52-.15.77-.21s.52-.09.78-.12.52,0,.78,0,.52,0,.78.05a6.54,6.54,0,0,1,.75.13,6.14,6.14,0,0,1,.73.22l.18.07.18.07.34.16.17.08.18.09.35.19.7.38.71.38.72.37a7.56,7.56,0,0,0,.76.33,4.32,4.32,0,0,0,.82.24,2.76,2.76,0,0,0,.91,0,2,2,0,0,0,.66-.21h0a1.61,1.61,0,0,0,.64-.78c0,.37.44.68.5.73h0a3.61,3.61,0,0,0,.44.22,2,2,0,0,0,.48.12,1.67,1.67,0,0,0,.5,0,1.48,1.48,0,0,0,.46-.16l.21-.12.18-.15.16-.16.08-.09.07-.09-.18.14"/></svg>