<svg id="Layer_1" data-name="Layer 1" xmlns="http://www.w3.org/2000/svg" viewBox="0 0 56 56"><defs><style>.cls-1{fill:#2d3588;}.cls-2{fill:#fff;}</style></defs><rect class="cls-1" width="56" height="56" rx="14.61"/><path class="cls-2" d="M30,41.82l-.19-.08a1.4,1.4,0,0,1-.73-2,1.48,1.48,0,0,1-.76-.92,1.36,1.36,0,0,1,.18-1.11,3.87,3.87,0,0,1-.48-.85,3.74,3.74,0,0,1,0-1h-.55c-.87,0-1.75,0-2.62,0a1.36,1.36,0,0,1-1.34-1.27,1.34,1.34,0,0,1,1.06-1.45,6.17,6.17,0,0,1,1.29,0,.35.35,0,0,1,.32.4.39.39,0,0,1-.41.39c-.29,0-.59,0-.89,0a.57.57,0,0,0-.49.85.64.64,0,0,0,.62.3c1.27,0,2.54,0,3.81,0,.36,0,.73,0,1.1,0s.5.16.5.41-.18.39-.5.4h-.57a.59.59,0,0,0-.57.6.6.6,0,0,0,.61.57H30a.41.41,0,0,1,.44.41.4.4,0,0,1-.43.39H29.7a.59.59,0,0,0-.62.57.58.58,0,0,0,.62.58h.78c.42,0,.61.12.61.4s-.18.4-.6.41H30.2a.56.56,0,0,0-.49.58.58.58,0,0,0,.52.57,1.92,1.92,0,0,0,.24,0h6.42a3.88,3.88,0,0,0,2-.48,1,1,0,0,1,.41-.11c.64,0,1.29,0,1.94,0,.34,0,.52.15.51.41s-.17.4-.52.4-.49,0-.73,0a3.79,3.79,0,0,0-2,.32,4.17,4.17,0,0,1-1,.27Z"/><path class="cls-2" d="M26.93,16.27a1.42,1.42,0,0,1,.55,2.09A1.52,1.52,0,0,1,28,20.09h3.22a1.36,1.36,0,0,1,1.31,1.12,1.39,1.39,0,0,1-.85,1.55,1.7,1.7,0,0,1-.39.09h-1a.4.4,0,0,1-.41-.38.41.41,0,0,1,.4-.43c.26,0,.53,0,.8,0s.67-.24.66-.59a.57.57,0,0,0-.65-.56H26.3a1.92,1.92,0,0,1-.24,0c-.29,0-.47-.18-.46-.42s.17-.38.46-.38h.54a.59.59,0,1,0,0-1.17c-.21,0-.43,0-.64,0a.4.4,0,1,1,0-.8h.35a.58.58,0,1,0,0-1.15H25.24a.37.37,0,0,1-.33-.4.35.35,0,0,1,.34-.38c.18,0,.36,0,.54,0a.56.56,0,0,0,.5-.6.57.57,0,0,0-.53-.55H19.07a3.91,3.91,0,0,0-1.92.48,1.14,1.14,0,0,1-.4.11h-2c-.32,0-.5-.15-.5-.4s.17-.41.49-.41h1.78a.82.82,0,0,0,.35-.09,4.79,4.79,0,0,1,2.13-.5h6.51A1.4,1.4,0,0,1,26.93,16.27Z"/><path class="cls-2" d="M22.05,22.91c-.35-.09-.49-.24-.47-.47s.2-.37.53-.37h6.27a.74.74,0,0,1,.26,0,.4.4,0,0,1-.07.77h-5.7c0,.12,0,.22,0,.32,0,1.11,0,2.22,0,3.32a1.58,1.58,0,0,1-2.06,1.59,1.55,1.55,0,0,1-1.1-1.47c0-.57,0-1.13,0-1.7a.3.3,0,0,0-.2-.33A4.89,4.89,0,0,1,17.57,23a.44.44,0,0,0-.3-.15c-.83,0-1.66,0-2.49,0-.33,0-.5-.13-.5-.39s.17-.42.51-.42h2.78a.56.56,0,0,1,.53.29,4,4,0,0,0,2,1.65.48.48,0,0,1,.35.53v2a.78.78,0,1,0,1.55,0C22.05,25.33,22.05,24.12,22.05,22.91Z"/><path class="cls-2" d="M34,33a2.17,2.17,0,0,1,.41.32.38.38,0,0,1-.25.57,1.51,1.51,0,0,1-.3,0H27.53a.42.42,0,0,1-.45-.4c0-.25.18-.41.47-.41h5.6v-.33c0-1.11,0-2.22,0-3.32A1.54,1.54,0,0,1,34,28a1.51,1.51,0,0,1,1.61.1,1.48,1.48,0,0,1,.68,1.25c0,.59,0,1.17,0,1.76a.26.26,0,0,0,.19.28A5.07,5.07,0,0,1,38.44,33a.48.48,0,0,0,.3.15c.84,0,1.68,0,2.51,0,.32,0,.49.17.47.43a.38.38,0,0,1-.41.38c-1,0-2,0-3,0a.55.55,0,0,1-.39-.23A4.27,4.27,0,0,0,35.8,32a.44.44,0,0,1-.29-.48V29.42a.78.78,0,0,0-.56-.77.76.76,0,0,0-.87.34,1,1,0,0,0-.12.44c0,1.19,0,2.39,0,3.59C34,33,34,33.07,34,33Z"/><path class="cls-2" d="M27.64,24.43a2.48,2.48,0,0,1,0-.29.37.37,0,0,1,.39-.37.35.35,0,0,1,.39.36c0,.29.13.33.38.38a3.55,3.55,0,0,1,2.74,2.8c0,.19.08.29.31.29a.38.38,0,0,1,.41.4.37.37,0,0,1-.41.39c-.21,0-.28.08-.31.27a3.55,3.55,0,0,1-2.85,2.85c-.18,0-.26.08-.26.28a.39.39,0,0,1-.4.44.39.39,0,0,1-.39-.45c0-.17-.06-.23-.22-.27a3.54,3.54,0,0,1-2.91-2.91,1.8,1.8,0,0,0-.05-.19,1.42,1.42,0,0,1-.3,0,.37.37,0,0,1-.35-.38.34.34,0,0,1,.34-.4c.31,0,.34-.15.4-.39a3.51,3.51,0,0,1,2.87-2.74Zm.42.81A2.76,2.76,0,1,0,30.82,28,2.76,2.76,0,0,0,28.06,25.24Z"/><path class="cls-2" d="M39.46,28a13.26,13.26,0,0,1-.5,3.25c-.11.34-.3.5-.54.43s-.34-.3-.24-.67a10.57,10.57,0,0,0-8.92-13.47l-.35,0a.43.43,0,0,1-.42-.44.42.42,0,0,1,.5-.37,10.72,10.72,0,0,1,2.69.55,11.24,11.24,0,0,1,7.53,8.62C39.36,26.54,39.38,27.26,39.46,28Z"/><path class="cls-2" d="M27.1,39.33a11.39,11.39,0,0,1-10.31-9.81,11.09,11.09,0,0,1,.36-4.72c.09-.31.27-.44.52-.37s.34.27.26.58A10.55,10.55,0,0,0,21.07,35.9a10.19,10.19,0,0,0,5.84,2.59l.22,0a.39.39,0,0,1,.37.44A.4.4,0,0,1,27.1,39.33Z"/><path class="cls-2" d="M35.84,26.67a.4.4,0,0,1-.34.41.39.39,0,0,1-.46-.31c-.08-.3-.14-.6-.22-.89a7.09,7.09,0,0,0-1.59-2.73A.86.86,0,0,1,33.1,23a.41.41,0,0,1,0-.56.38.38,0,0,1,.56,0,8.21,8.21,0,0,1,.67.77,7.73,7.73,0,0,1,1.45,3.24C35.82,26.55,35.83,26.62,35.84,26.67Z"/><path class="cls-2" d="M20.28,29.36a.4.4,0,0,1,.79-.11c.06.22.1.44.16.66a7,7,0,0,0,1.61,2.89A1.06,1.06,0,0,1,23,33a.37.37,0,0,1-.12.48.36.36,0,0,1-.51,0,5.78,5.78,0,0,1-.52-.59,7.77,7.77,0,0,1-1.55-3.37A.77.77,0,0,1,20.28,29.36Z"/><path class="cls-2" d="M26.37,28a1.69,1.69,0,1,1,1.68,1.68A1.67,1.67,0,0,1,26.37,28Zm1.69-.87a.87.87,0,1,0,.87.88A.86.86,0,0,0,28.06,27.13Z"/></svg>