<svg id="Layer_1" data-name="Layer 1" xmlns="http://www.w3.org/2000/svg" viewBox="0 0 20 20"><defs><style>.cls-1{fill:#ea1e26;}</style></defs><path class="cls-1" d="M20,9.48v1a.37.37,0,0,1-.39.37,4.4,4.4,0,0,0-4.68,4.69.38.38,0,0,1-.38.39h-1a.38.38,0,0,1-.38-.36,6.11,6.11,0,0,1,1.26-4.1.38.38,0,0,0-.29-.61H4.26a.36.36,0,0,1-.37-.37v-1a.37.37,0,0,1,.37-.38h9.86a.37.37,0,0,0,.29-.61,5.7,5.7,0,0,1-1-1.78,6,6,0,0,1-.26-1.19,10.61,10.61,0,0,1,0-1.13A.38.38,0,0,1,13.55,4h1l.37.41a4,4,0,0,0,.49,2.36,4.28,4.28,0,0,0,3.87,2.3h.31A.38.38,0,0,1,20,9.48Z"/><path class="cls-1" d="M6.07,14.89A4.89,4.89,0,1,1,10.33,7.6h1.32a6.08,6.08,0,1,0,0,4.81H10.32A4.89,4.89,0,0,1,6.07,14.89Z"/></svg>