<svg id="Layer_1" data-name="Layer 1" xmlns="http://www.w3.org/2000/svg" viewBox="0 0 56 56"><defs><style>.cls-1{fill:#2d3588;}.cls-2{fill:#fff;}</style></defs><rect class="cls-1" width="56" height="56" rx="14.61"/><path class="cls-2" d="M14.18,27.14c.07-.51.12-1,.21-1.52A13.86,13.86,0,0,1,28.32,14.18a13.33,13.33,0,0,1,3.76.62A.69.69,0,0,1,32,16.15a1,1,0,0,1-.39-.06,12.23,12.23,0,0,0-11.1,2,11.87,11.87,0,0,0-4.76,7.79A12.08,12.08,0,0,0,18.45,36a11.9,11.9,0,0,0,7.44,4.27,12,12,0,0,0,10.54-3.12,12.07,12.07,0,0,0,3.89-10.78,19.18,19.18,0,0,0-.42-2c-.11-.47.05-.85.44-1a.72.72,0,0,1,.89.57,13.83,13.83,0,0,1-10.71,17.6c-.55.1-1.1.16-1.66.23H27.14l-.18,0c-.64-.1-1.29-.16-1.92-.29A13.81,13.81,0,0,1,14.39,30.38c-.08-.5-.14-1-.21-1.52Z"/><path class="cls-2" d="M28.06,37.65a9.76,9.76,0,0,1-9.52-8.09,9.64,9.64,0,0,1,8.18-11.15,16.43,16.43,0,0,1,1.86-.07.73.73,0,0,1,.64.33.66.66,0,0,1-.62,1.06,7,7,0,0,0-3.27.43A8,8,0,0,0,19.86,27a8.16,8.16,0,0,0,6,8.9,8.25,8.25,0,0,0,10.29-6.43,12.63,12.63,0,0,0,.12-2,.74.74,0,0,1,.62-.83.68.68,0,0,1,.76.7,12.32,12.32,0,0,1-.14,2.36,9.4,9.4,0,0,1-7.38,7.67A17.79,17.79,0,0,1,28.06,37.65Z"/><path class="cls-2" d="M34.44,23.84a3.89,3.89,0,0,0-1.28,0c-.36.15-.62.56-.91.86l-3.63,3.63a.76.76,0,0,1-.77.26.68.68,0,0,1-.34-1.09,1.58,1.58,0,0,1,.22-.23L32,23.06a.66.66,0,0,0,.21-.51c0-.68,0-1.35,0-2a.93.93,0,0,1,.3-.72q2-2,4-4a.72.72,0,0,1,.85-.23.71.71,0,0,1,.42.75c0,.55,0,1.11,0,1.67,0,.23.07.29.29.28h1.68a.69.69,0,0,1,.73.43.72.72,0,0,1-.22.83l-4,4a.91.91,0,0,1-.7.29H34.44ZM38,19.75l0-.06c-.21,0-.43,0-.64,0-.82.06-1.12-.25-1.06-1.05,0-.22,0-.44,0-.68l-.1.05-2.56,2.56a.26.26,0,0,0-.09.16v1.71a10,10,0,0,1,1.1,0A1.26,1.26,0,0,0,35.83,22C36.54,21.21,37.3,20.49,38,19.75Z"/><path class="cls-2" d="M22.56,28a5.47,5.47,0,0,1,5.22-5.5h.3a.68.68,0,0,1,.06,1.36c-.36.05-.74.06-1.09.14a4.13,4.13,0,1,0,5.12,4.18.79.79,0,0,1,.38-.78.68.68,0,0,1,1,.68,5.49,5.49,0,0,1-6.94,5.22,5.29,5.29,0,0,1-4-4.36,3.47,3.47,0,0,1-.06-.45C22.55,28.28,22.56,28.11,22.56,28Z"/></svg>